<svg width="14" height="14" viewBox="0 0 14 14" fill="none" xmlns="http://www.w3.org/2000/svg">
<path fill-rule="evenodd" clip-rule="evenodd" d="M2.1129 0.709705L2.20711 0.792893L7 5.585L11.7929 0.792893C12.1834 0.402369 12.8166 0.402369 13.2071 0.792893C13.5676 1.15338 13.5953 1.72061 13.2903 2.1129L13.2071 2.20711L8.415 7L13.2071 11.7929C13.5976 12.1834 13.5976 12.8166 13.2071 13.2071C12.8466 13.5676 12.2794 13.5953 11.8871 13.2903L11.7929 13.2071L7 8.415L2.20711 13.2071C1.81658 13.5976 1.18342 13.5976 0.792893 13.2071C0.432409 12.8466 0.40468 12.2794 0.709705 11.8871L0.792893 11.7929L5.585 7L0.792893 2.20711C0.402369 1.81658 0.402369 1.18342 0.792893 0.792893C1.15338 0.432409 1.72061 0.40468 2.1129 0.709705Z" fill="black" fill-opacity="0.56"/>
</svg>
