<svg width="20" height="20" viewBox="0 0 20 20" fill="none" xmlns="http://www.w3.org/2000/svg">
<path d="M14.3401 -6.10352e-05C17.7301 -6.10352e-05 20.0001 2.37994 20.0001 5.91994V14.0909C20.0001 17.6199 17.7301 19.9999 14.3401 19.9999H5.67012C2.28012 19.9999 0.00012207 17.6199 0.00012207 14.0909V5.91994C0.00012207 2.37994 2.28012 -6.10352e-05 5.67012 -6.10352e-05H14.3401ZM14.1801 6.99994C13.8401 6.65994 13.2801 6.65994 12.9401 6.99994L8.81012 11.1299L7.06012 9.37994C6.72012 9.03994 6.16012 9.03994 5.82012 9.37994C5.48012 9.71994 5.48012 10.2699 5.82012 10.6199L8.20012 12.9899C8.37012 13.1599 8.59012 13.2399 8.81012 13.2399C9.04012 13.2399 9.26012 13.1599 9.43012 12.9899L14.1801 8.23994C14.5201 7.89994 14.5201 7.34994 14.1801 6.99994Z" fill="#FC973B" fill-opacity="0.69"/>
</svg>
